<?xml version="1.0" encoding="utf-8"?>
<!-- Generator: Adobe Illustrator 21.1.0, SVG Export Plug-In . SVG Version: 6.00 Build 0)  -->
<svg version="1.1" id="Слой_1" xmlns="http://www.w3.org/2000/svg" xmlns:xlink="http://www.w3.org/1999/xlink" x="0px" y="0px"
	 viewBox="0 0 191 69" style="enable-background:new 0 0 191 69;" xml:space="preserve">
<style type="text/css">
	.st0{fill:#FFFFFF;}
	.st1{font-family:'Raleway-Regular';}
	.st2{font-size:34px;}
</style>
<g>
	<path class="st0" d="M56.9,61.4l5.3-9.2l5.3,9.2H56.9z M50.3,51.5h10.5l-5.3,9.2L50.3,51.5z M55.6,40.7l5.3,9.2H50.3L55.6,40.7z
		 M43.7,40h10.5L49,49.2L43.7,40z M49,29.3l5.3,9.2H43.7L49,29.3z M37.2,28.5h10.5l-5.3,9.2L37.2,28.5z M42.4,17.8l5.3,9.2H37.2
		L42.4,17.8z M30.6,17h10.5l-5.3,9.2L30.6,17z M35.8,6.3l5.3,9.2H30.6L35.8,6.3z M24,27l5.3-9.2l5.3,9.2H24z M17.5,38.4l5.3-9.2
		l5.3,9.2H17.5z M10.9,49.9l5.3-9.2l5.3,9.2H10.9z M4.3,61.4l5.3-9.2l5.3,9.2H4.3z M21.4,51.5l-5.3,9.2l-5.3-9.2H21.4z M28,40
		l-5.3,9.2L17.5,40H28z M34.5,28.5l-5.3,9.2L24,28.5H34.5z M41.1,61.4H30.6l5.2-9.2L41.1,61.4z M47.7,51.5l-5.3,9.2l-5.3-9.2H47.7z
		 M54.2,61.4H43.7l5.3-9.2L54.2,61.4z"/>
	<text transform="matrix(1 0 0 1 69.52 46.28)" class="st0 st1 st2">W</text>
	<text transform="matrix(1 0 0 1 103.9299 46.28)" class="st0 st1 st2">a</text>
	<text transform="matrix(1 0 0 1 120.96 46.28)" class="st0 st1 st2">x</text>
	<text transform="matrix(1 0 0 1 137.3401 46.28)" class="st0 st1 st2">o</text>
	<text transform="matrix(1 0 0 1 155.6399 46.28)" class="st0 st1 st2">m</text>
</g>
</svg>
